<svg xmlns="http://www.w3.org/2000/svg" width="31.594" height="36.507" viewBox="0 0 31.594 36.507">
  <g id="location-pin" transform="translate(0)">
    <path id="Path_3" data-name="Path 3" d="M26.968,4.627a15.8,15.8,0,1,0-22.34,22.34L13.02,35.36a3.936,3.936,0,0,0,5.555,0l8.393-8.393a15.8,15.8,0,0,0,0-22.34ZM15.8,19.31A3.513,3.513,0,1,1,19.31,15.8,3.517,3.517,0,0,1,15.8,19.31Zm0,0" transform="translate(0 0)" fill="#ff4949"/>
    <path id="Path_4" data-name="Path 4" d="M232.721,4.627A15.694,15.694,0,0,0,221.551,0V12.284a3.513,3.513,0,0,1,0,7.026v17.2a3.9,3.9,0,0,0,2.777-1.147l8.393-8.393a15.8,15.8,0,0,0,0-22.34Zm0,0" transform="translate(-205.753 0)" fill="#f30051"/>
  </g>
</svg>
